<?xml version="1.0" encoding="iso-8859-1"?>
<!-- Generator: Adobe Illustrator 19.0.0, SVG Export Plug-In . SVG Version: 6.00 Build 0)  -->
<svg version="1.1" id="Layer_1" xmlns="http://www.w3.org/2000/svg" xmlns:xlink="http://www.w3.org/1999/xlink" x="0px" y="0px"
	 viewBox="0 0 511.997 511.997" style="enable-background:new 0 0 511.997 511.997;" xml:space="preserve">
<path d="M426.662,366.927c0-4.693-3.84-8.533-8.533-8.533H373.5L264.19,5.973C263.081,2.475,259.753,0,255.998,0
	c-3.755,0-7.083,2.475-8.192,5.973l-109.31,352.421H93.868c-4.693,0-8.533,3.84-8.533,8.533c0,4.693,3.84,8.533,8.533,8.533h39.338
	L94.209,500.898c-0.853,2.901-0.171,6.144,1.877,8.363c2.133,2.219,5.205,3.157,8.192,2.56l143.187-31.829v23.466
	c0,4.693,3.84,8.533,8.533,8.533s8.533-3.84,8.533-8.533v-23.466l143.187,31.829c0.683,0.085,1.28,0.171,1.877,0.171
	c2.389,0,4.608-0.939,6.315-2.731c2.048-2.219,2.731-5.461,1.877-8.363L378.791,375.46h39.338
	C422.822,375.46,426.662,371.62,426.662,366.927z M247.465,462.499l-132.52,29.44L151.04,375.46h28.672
	c3.925,35.498,32.255,63.828,67.754,67.754V462.499z M247.465,425.977c-26.112-3.755-46.762-24.405-50.516-50.516h50.516V425.977z
	 M247.465,358.394h-50.516c3.755-26.112,24.405-46.762,50.516-50.516V358.394z M247.465,290.641
	c-35.498,3.925-63.828,32.255-67.754,67.754h-23.381l91.134-293.542V290.641z M264.532,64.852l91.134,293.542h-23.381
	c-3.925-35.498-32.255-63.828-67.754-67.754V64.852z M264.532,307.878c26.112,3.755,46.762,24.405,50.517,50.516h-50.517V307.878z
	 M264.532,375.46h50.517c-3.755,26.112-24.405,46.762-50.517,50.516V375.46z M397.052,491.938l-132.52-29.44v-19.285
	c35.498-3.925,63.828-32.255,67.754-67.754h28.672L397.052,491.938z"/>
<path style="fill:#B71C1C;" d="M355.666,358.394h-23.381c-3.925-35.498-32.255-63.828-67.754-67.754V64.852L355.666,358.394z"/>
<path style="fill:#FFC107;" d="M247.465,307.878v50.516h-50.516C200.703,332.282,221.354,311.632,247.465,307.878z"/>
<path style="fill:#D50000;" d="M247.465,64.852V290.64c-35.498,3.925-63.828,32.255-67.754,67.754h-23.381L247.465,64.852z"/>
<path style="fill:#F9A825;" d="M315.048,358.394h-50.517v-50.516C290.643,311.632,311.294,332.282,315.048,358.394z"/>
<path style="fill:#FFC107;" d="M315.048,375.46c-3.755,26.112-24.405,46.762-50.517,50.516V375.46H315.048z"/>
<path style="fill:#F9A825;" d="M247.465,375.46v50.516c-26.112-3.755-46.762-24.405-50.516-50.516H247.465z"/>
<path style="fill:#B71C1C;" d="M247.465,443.214v19.285l-132.52,29.44L151.04,375.46h28.672
	C183.637,410.958,211.967,439.289,247.465,443.214z"/>
<path style="fill:#D50000;" d="M397.052,491.938l-132.52-29.44v-19.285c35.498-3.925,63.828-32.255,67.754-67.754h28.672
	L397.052,491.938z"/>
<g>
</g>
<g>
</g>
<g>
</g>
<g>
</g>
<g>
</g>
<g>
</g>
<g>
</g>
<g>
</g>
<g>
</g>
<g>
</g>
<g>
</g>
<g>
</g>
<g>
</g>
<g>
</g>
<g>
</g>
</svg>
